Coordinates
version=1
nRows=6
nColumns=63
inDegrees=yes

Units are S.I. units (second, meters, Newtons, ...)
If the header above contains a line with 'inDegrees', this indicates whether rotational values are in degrees (yes) or radians (no).

endheader
time	pelvis_tilt	pelvis_list	pelvis_rotation	pelvis_tx	pelvis_ty	pelvis_tz	hip_flexion_r	hip_adduction_r	hip_rotation_r	knee_angle_r	knee_angle_r_beta	ankle_angle_r	subtalar_angle_r	mtp_angle_r	hip_flexion_l	hip_adduction_l	hip_rotation_l	knee_angle_l	knee_angle_l_beta	ankle_angle_l	subtalar_angle_l	mtp_angle_l	L5_S1_Flex_Ext	L5_S1_Lat_Bending	L5_S1_axial_rotation	L4_L5_Flex_Ext	L4_L5_Lat_Bending	L4_L5_axial_rotation	L3_L4_Flex_Ext	L3_L4_Lat_Bending	L3_L4_axial_rotation	L2_L3_Flex_Ext	L2_L3_Lat_Bending	L2_L3_axial_rotation	L1_L2_Flex_Ext	L1_L2_Lat_Bending	L1_L2_axial_rotation	L1_T12_Flex_Ext	L1_T12_Lat_Bending	L1_T12_axial_rotation	Abs_r3	Abs_r2	Abs_r1	Abs_t1	Abs_t2	neck_flexion	neck_bending	neck_rotation	arm_flex_r	arm_add_r	arm_rot_r	elbow_flex_r	pro_sup_r	wrist_flex_r	wrist_dev_r	arm_flex_l	arm_add_l	arm_rot_l	elbow_flex_l	pro_sup_l	wrist_flex_l	wrist_dev_l
      0.00800000	    -61.38554425	     -2.99436171	      6.22586203	     -0.29581507	      1.13214508	      0.02697223	     84.42414964	    -10.45622291	    -16.40661980	     30.62523498	      0.53451118	      0.26235842	      3.48889955	      0.00000000	    121.41989472	      2.58315111	      0.63975000	    108.27183114	      1.88969994	     24.65957137	      2.15616225	      0.00000000	     -0.08378024	      0.95809869	     -0.98160611	     -0.15558829	      1.27427126	     -1.04295649	     -0.13764256	      2.32952116	     -1.04295649	     -0.09575244	      2.32952116	     -0.85890535	     -0.07779833	      1.95375485	     -0.79755496	     -0.04787203	      1.48409487	     -0.73620458	     -0.59843388	     10.83820402	     -5.45939870	      0.00000000	      0.00000000	      0.00000000	      0.00000000	      0.00000001	     65.75516770	    -11.33367915	      6.00160302	     38.97324525	     63.89465255	      0.00000000	      4.67134362	     60.99600615	     -4.02343122	     -2.16925884	     39.22523488	     63.90934978	      0.00000000	      4.67134362
      0.01700000	    -61.45735000	     -2.27810294	      6.75772577	     -0.29642125	      1.13248367	      0.02742868	     83.72616386	    -11.00960842	    -16.25797908	     30.83698783	      0.53820697	     -0.08659780	      3.27397259	      0.00000000	    122.89098407	      2.57111190	     -0.49168814	    108.35898820	      1.89122112	     23.77197643	      0.59800482	      0.00000000	     -0.08455532	      0.84000248	     -1.05528828	     -0.15702769	      1.11720329	     -1.12124380	     -0.13891594	      2.04238202	     -1.12124380	     -0.09663828	      2.04238202	     -0.92337724	     -0.07851807	      1.71293305	     -0.85742173	     -0.04831491	      1.30116384	     -0.79146621	     -0.60397020	      9.50227602	     -5.86919682	      0.00000000	      0.00000000	      0.00000000	      0.00000000	      0.00000001	     65.60468659	    -11.15061397	      5.86428821	     38.77249369	     63.80320089	      0.00000000	      4.69148413	     61.20112898	     -3.98222242	     -2.04742900	     39.32516538	     63.86710347	      0.00000000	      4.69148413
      0.02500000	    -61.46314500	     -2.21542743	      6.75520270	     -0.29658793	      1.13245917	      0.02740370	     83.59227905	    -11.01276258	    -16.08028047	     31.08799102	      0.54258780	     -0.24070823	      3.06878856	      0.00000000	    123.30828745	      2.53853877	     -0.57882607	    108.25293365	      1.88937012	     23.78383046	      0.59932430	      0.00000000	     -0.08360572	      0.83144419	     -1.03945093	     -0.15526419	      1.10582077	     -1.10441661	     -0.13735584	      2.02157339	     -1.10441661	     -0.09555298	      2.02157339	     -0.90951956	     -0.07763627	      1.69548098	     -0.84455388	     -0.04777231	      1.28790704	     -0.77958820	     -0.59718731	      9.40546291	     -5.78111424	      0.00000000	      0.00000000	      0.00000000	      0.00000000	      0.00000001	     65.56706498	    -11.19840444	      5.74066097	     38.82655088	     63.31019523	      0.00000000	      4.70701509	     61.28755572	     -3.91786538	     -1.90188003	     39.18553719	     63.41535084	      0.00000000	      4.70701509
      0.03300000	    -61.51129803	     -2.14753436	      6.69587611	     -0.29674473	      1.13232412	      0.02740131	     83.51952962	    -10.96277310	    -15.79406387	     31.46047727	      0.54908891	     -0.27222820	      2.85441332	      0.00000000	    123.78526530	      2.46625824	     -0.67445182	    108.08058713	      1.88636210	     24.03159135	      0.52753203	      0.00000000	     -0.07846509	      0.82272571	     -1.01626975	     -0.14571751	      1.09422519	     -1.07978661	     -0.12891029	      2.00037529	     -1.07978661	     -0.08967775	      2.00037529	     -0.88923603	     -0.07286268	      1.67770227	     -0.82571917	     -0.04483495	      1.27440212	     -0.76220231	     -0.56046827	      9.30683778	     -5.65218746	      0.00000000	      0.00000000	      0.00000000	      0.00000000	      0.00000001	     65.43460552	    -11.30043485	      5.66279313	     39.16635741	     62.83554996	      0.00000000	      4.71895449	     61.20211893	     -3.89975602	     -1.80898805	     39.46225510	     62.96247274	      0.00000000	      4.71895449
      0.04200000	    -61.45271904	     -2.21943590	      6.74411474	     -0.29694748	      1.13239799	      0.02696190	     83.29700704	    -11.18664094	    -16.46904620	     31.99484368	      0.55841537	     -0.31717727	      3.14123352	      0.00000000	    124.24793738	      2.61958270	     -0.71655430	    107.80931606	      1.88162753	     23.69402281	      0.21257146	      0.00000000	     -0.08373560	      0.83671667	     -1.00048217	     -0.15550539	      1.11283317	     -1.06301231	     -0.13756922	      2.03439292	     -1.06301231	     -0.09570142	      2.03439292	     -0.87542190	     -0.07775688	      1.70623264	     -0.81289177	     -0.04784652	      1.29607412	     -0.75036163	     -0.59811503	      9.46510634	     -5.56438170	      0.00000000	      0.00000000	      0.00000000	      0.00000000	      0.00000001	     65.48997088	    -11.36311421	      5.31282945	     39.08452140	     62.79092612	      0.00000000	      4.73137139	     61.53542392	     -3.96127034	     -0.85818337	     38.80109650	     63.11758524	      0.00000000	      4.73137139
      0.05000000	    -61.45888357	     -2.19621811	      6.69038543	     -0.29714502	      1.13238259	      0.02670673	     83.20885394	    -11.22418594	    -16.39968859	     32.64058300	      0.56968564	     -0.35868116	      3.13609231	      0.00000000	    124.73381184	      2.64500936	     -0.79380713	    107.45969299	      1.87552546	     23.69525435	      0.14479923	      0.00000000	     -0.08400815	      0.83753830	     -0.97552428	     -0.15601154	      1.11392594	     -1.03649455	     -0.13801699	      2.03639062	     -1.03649455	     -0.09601291	      2.03639062	     -0.85358374	     -0.07800997	      1.70790810	     -0.79261348	     -0.04800226	      1.29734682	     -0.73164321	     -0.60006181	      9.47440073	     -5.42557338	      0.00000000	      0.00000000	      0.00000000	      0.00000000	      0.00000001	     65.46379190	    -11.46946595	      5.19856952	     39.19762399	     62.74374786	      0.00000000	      4.73497629	     61.62252048	     -3.90992439	     -0.71012050	     38.67934165	     63.11089870	      0.00000000	      4.73497629
